<svg width="100" height="100" viewBox="0 0 100 100" fill="none" xmlns="http://www.w3.org/2000/svg">
<circle opacity="0.04" cx="50" cy="50" r="50" fill="#616D39"/>
<circle opacity="0.05" cx="50" cy="50" r="36" fill="#616D39"/>
<path fill-rule="evenodd" clip-rule="evenodd" d="M66.0424 52.6667L60.392 44.3331H39.6085L36.2525 49.3331H36.2678L34.0404 52.6666H45.0004C45.0004 55.428 47.2389 57.6666 50.0004 57.6666C52.7618 57.6666 55.0004 55.428 55.0004 52.6666L66.0424 52.6667ZM70.0002 52.6667V66.0003H30.0002V52.6667L37.8317 41.0003H62.1695L70.0002 52.6667ZM42.3602 56.0001H33.3331V62.6667H66.666V56.0001H57.6388C56.3531 58.9432 53.4162 61.0001 49.9988 61.0001C46.5815 61.0001 43.6447 58.9432 42.3588 56.0001H42.3602ZM51.6667 37.6666H48.3335V31H51.6667V37.6666ZM59.6302 38.7137L57.037 36.6194L61.0752 31.6194L63.6685 33.7137L59.6302 38.7137ZM42.9631 36.6194L40.3699 38.7137L36.3317 33.7137L38.9249 31.6194L42.9631 36.6194Z" fill="#616D39"/>
</svg>
