<svg width="205" height="205" viewBox="0 0 205 205" fill="none" xmlns="http://www.w3.org/2000/svg">
<rect width="8" height="8" rx="4" fill="#FC7600" fill-opacity="0.1"/>
<rect x="21.8379" width="8" height="8" rx="4" fill="#FC7600" fill-opacity="0.1"/>
<rect x="43.6758" width="8" height="8" rx="4" fill="#FC7600" fill-opacity="0.1"/>
<rect x="65.5137" width="8" height="8" rx="4" fill="#FC7600" fill-opacity="0.1"/>
<rect x="87.3516" width="8" height="8" rx="4" fill="#FC7600" fill-opacity="0.1"/>
<rect x="109.189" width="8" height="8" rx="4" fill="#FC7600" fill-opacity="0.1"/>
<rect x="131.027" width="8" height="8" rx="4" fill="#FC7600" fill-opacity="0.1"/>
<rect x="152.865" width="8" height="8" rx="4" fill="#FC7600" fill-opacity="0.1"/>
<rect x="174.703" width="8" height="8" rx="4" fill="#FC7600" fill-opacity="0.1"/>
<rect x="196.541" width="8" height="8" rx="4" fill="#FC7600" fill-opacity="0.1"/>
<rect y="21.8379" width="8" height="8" rx="4" fill="#FC7600" fill-opacity="0.1"/>
<rect x="21.8379" y="21.8379" width="8" height="8" rx="4" fill="#FC7600" fill-opacity="0.1"/>
<rect x="43.6758" y="21.8379" width="8" height="8" rx="4" fill="#FC7600" fill-opacity="0.1"/>
<rect x="65.5137" y="21.8379" width="8" height="8" rx="4" fill="#FC7600" fill-opacity="0.1"/>
<rect x="87.3516" y="21.8379" width="8" height="8" rx="4" fill="#FC7600" fill-opacity="0.1"/>
<rect x="109.189" y="21.8379" width="8" height="8" rx="4" fill="#FC7600" fill-opacity="0.1"/>
<rect x="131.027" y="21.8379" width="8" height="8" rx="4" fill="#FC7600" fill-opacity="0.1"/>
<rect x="152.865" y="21.8379" width="8" height="8" rx="4" fill="#FC7600" fill-opacity="0.1"/>
<rect x="174.703" y="21.8379" width="8" height="8" rx="4" fill="#FC7600" fill-opacity="0.1"/>
<rect x="196.541" y="21.8379" width="8" height="8" rx="4" fill="#FC7600" fill-opacity="0.1"/>
<rect y="43.6758" width="8" height="8" rx="4" fill="#FC7600" fill-opacity="0.1"/>
<rect x="21.8379" y="43.6758" width="8" height="8" rx="4" fill="#FC7600" fill-opacity="0.1"/>
<rect x="43.6758" y="43.6758" width="8" height="8" rx="4" fill="#FC7600" fill-opacity="0.1"/>
<rect x="65.5137" y="43.6758" width="8" height="8" rx="4" fill="#FC7600" fill-opacity="0.1"/>
<rect x="87.3516" y="43.6758" width="8" height="8" rx="4" fill="#FC7600" fill-opacity="0.1"/>
<rect x="109.189" y="43.6758" width="8" height="8" rx="4" fill="#FC7600" fill-opacity="0.1"/>
<rect x="131.027" y="43.6758" width="8" height="8" rx="4" fill="#FC7600" fill-opacity="0.1"/>
<rect x="152.865" y="43.6758" width="8" height="8" rx="4" fill="#FC7600" fill-opacity="0.1"/>
<rect x="174.703" y="43.6758" width="8" height="8" rx="4" fill="#FC7600" fill-opacity="0.1"/>
<rect x="196.541" y="43.6758" width="8" height="8" rx="4" fill="#FC7600" fill-opacity="0.1"/>
<rect y="65.5137" width="8" height="8" rx="4" fill="#FC7600" fill-opacity="0.1"/>
<rect x="21.8379" y="65.5137" width="8" height="8" rx="4" fill="#FC7600" fill-opacity="0.1"/>
<rect x="43.6758" y="65.5137" width="8" height="8" rx="4" fill="#FC7600" fill-opacity="0.1"/>
<rect x="65.5137" y="65.5137" width="8" height="8" rx="4" fill="#FC7600" fill-opacity="0.1"/>
<rect x="87.3516" y="65.5137" width="8" height="8" rx="4" fill="#FC7600" fill-opacity="0.1"/>
<rect x="109.189" y="65.5137" width="8" height="8" rx="4" fill="#FC7600" fill-opacity="0.1"/>
<rect x="131.027" y="65.5137" width="8" height="8" rx="4" fill="#FC7600" fill-opacity="0.1"/>
<rect x="152.865" y="65.5137" width="8" height="8" rx="4" fill="#FC7600" fill-opacity="0.1"/>
<rect x="174.703" y="65.5137" width="8" height="8" rx="4" fill="#FC7600" fill-opacity="0.1"/>
<rect x="196.541" y="65.5137" width="8" height="8" rx="4" fill="#FC7600" fill-opacity="0.1"/>
<rect y="87.3516" width="8" height="8" rx="4" fill="#FC7600" fill-opacity="0.1"/>
<rect x="21.8379" y="87.3516" width="8" height="8" rx="4" fill="#FC7600" fill-opacity="0.1"/>
<rect x="43.6758" y="87.3516" width="8" height="8" rx="4" fill="#FC7600" fill-opacity="0.1"/>
<rect x="65.5137" y="87.3516" width="8" height="8" rx="4" fill="#FC7600" fill-opacity="0.1"/>
<rect x="87.3516" y="87.3516" width="8" height="8" rx="4" fill="#FC7600" fill-opacity="0.1"/>
<rect x="109.189" y="87.3516" width="8" height="8" rx="4" fill="#FC7600" fill-opacity="0.1"/>
<rect x="131.027" y="87.3516" width="8" height="8" rx="4" fill="#FC7600" fill-opacity="0.1"/>
<rect x="152.865" y="87.3516" width="8" height="8" rx="4" fill="#FC7600" fill-opacity="0.1"/>
<rect x="174.703" y="87.3516" width="8" height="8" rx="4" fill="#FC7600" fill-opacity="0.1"/>
<rect x="196.541" y="87.3516" width="8" height="8" rx="4" fill="#FC7600" fill-opacity="0.1"/>
<rect y="109.189" width="8" height="8" rx="4" fill="#FC7600" fill-opacity="0.1"/>
<rect x="21.8379" y="109.189" width="8" height="8" rx="4" fill="#FC7600" fill-opacity="0.1"/>
<rect x="43.6758" y="109.189" width="8" height="8" rx="4" fill="#FC7600" fill-opacity="0.1"/>
<rect x="65.5137" y="109.189" width="8" height="8" rx="4" fill="#FC7600" fill-opacity="0.1"/>
<rect x="87.3516" y="109.189" width="8" height="8" rx="4" fill="#FC7600" fill-opacity="0.1"/>
<rect x="109.189" y="109.189" width="8" height="8" rx="4" fill="#FC7600" fill-opacity="0.1"/>
<rect x="131.027" y="109.189" width="8" height="8" rx="4" fill="#FC7600" fill-opacity="0.1"/>
<rect x="152.865" y="109.189" width="8" height="8" rx="4" fill="#FC7600" fill-opacity="0.1"/>
<rect x="174.703" y="109.189" width="8" height="8" rx="4" fill="#FC7600" fill-opacity="0.1"/>
<rect x="196.541" y="109.189" width="8" height="8" rx="4" fill="#FC7600" fill-opacity="0.1"/>
<rect y="131.027" width="8" height="8" rx="4" fill="#FC7600" fill-opacity="0.1"/>
<rect y="152.865" width="8" height="8" rx="4" fill="#FC7600" fill-opacity="0.1"/>
<rect y="174.703" width="8" height="8" rx="4" fill="#FC7600" fill-opacity="0.1"/>
<rect y="196.541" width="8" height="8" rx="4" fill="#FC7600" fill-opacity="0.1"/>
<rect x="21.8379" y="131.027" width="8" height="8" rx="4" fill="#FC7600" fill-opacity="0.1"/>
<rect x="21.8379" y="152.865" width="8" height="8" rx="4" fill="#FC7600" fill-opacity="0.1"/>
<rect x="21.8379" y="174.703" width="8" height="8" rx="4" fill="#FC7600" fill-opacity="0.1"/>
<rect x="21.8379" y="196.541" width="8" height="8" rx="4" fill="#FC7600" fill-opacity="0.1"/>
<rect x="43.6758" y="131.027" width="8" height="8" rx="4" fill="#FC7600" fill-opacity="0.1"/>
<rect x="43.6758" y="152.865" width="8" height="8" rx="4" fill="#FC7600" fill-opacity="0.1"/>
<rect x="43.6758" y="174.703" width="8" height="8" rx="4" fill="#FC7600" fill-opacity="0.1"/>
<rect x="43.6758" y="196.541" width="8" height="8" rx="4" fill="#FC7600" fill-opacity="0.1"/>
<rect x="65.5137" y="131.027" width="8" height="8" rx="4" fill="#FC7600" fill-opacity="0.1"/>
<rect x="65.5137" y="152.865" width="8" height="8" rx="4" fill="#FC7600" fill-opacity="0.1"/>
<rect x="65.5137" y="174.703" width="8" height="8" rx="4" fill="#FC7600" fill-opacity="0.1"/>
<rect x="65.5137" y="196.541" width="8" height="8" rx="4" fill="#FC7600" fill-opacity="0.1"/>
<rect x="87.3516" y="131.027" width="8" height="8" rx="4" fill="#FC7600" fill-opacity="0.1"/>
<rect x="87.3516" y="152.865" width="8" height="8" rx="4" fill="#FC7600" fill-opacity="0.1"/>
<rect x="87.3516" y="174.703" width="8" height="8" rx="4" fill="#FC7600" fill-opacity="0.1"/>
<rect x="87.3516" y="196.541" width="8" height="8" rx="4" fill="#FC7600" fill-opacity="0.1"/>
<rect x="109.189" y="131.027" width="8" height="8" rx="4" fill="#FC7600" fill-opacity="0.1"/>
<rect x="109.189" y="152.865" width="8" height="8" rx="4" fill="#FC7600" fill-opacity="0.1"/>
<rect x="109.189" y="174.703" width="8" height="8" rx="4" fill="#FC7600" fill-opacity="0.1"/>
<rect x="109.189" y="196.541" width="8" height="8" rx="4" fill="#FC7600" fill-opacity="0.1"/>
<rect x="131.027" y="131.027" width="8" height="8" rx="4" fill="#FC7600" fill-opacity="0.1"/>
<rect x="131.027" y="152.865" width="8" height="8" rx="4" fill="#FC7600" fill-opacity="0.1"/>
<rect x="131.027" y="174.703" width="8" height="8" rx="4" fill="#FC7600" fill-opacity="0.1"/>
<rect x="131.027" y="196.541" width="8" height="8" rx="4" fill="#FC7600" fill-opacity="0.1"/>
<rect x="152.865" y="131.027" width="8" height="8" rx="4" fill="#FC7600" fill-opacity="0.1"/>
<rect x="152.865" y="152.865" width="8" height="8" rx="4" fill="#FC7600" fill-opacity="0.1"/>
<rect x="152.865" y="174.703" width="8" height="8" rx="4" fill="#FC7600" fill-opacity="0.1"/>
<rect x="152.865" y="196.541" width="8" height="8" rx="4" fill="#FC7600" fill-opacity="0.1"/>
<rect x="174.703" y="131.027" width="8" height="8" rx="4" fill="#FC7600" fill-opacity="0.1"/>
<rect x="174.703" y="152.865" width="8" height="8" rx="4" fill="#FC7600" fill-opacity="0.1"/>
<rect x="174.703" y="174.703" width="8" height="8" rx="4" fill="#FC7600" fill-opacity="0.1"/>
<rect x="174.703" y="196.541" width="8" height="8" rx="4" fill="#FC7600" fill-opacity="0.1"/>
<rect x="196.541" y="131.027" width="8" height="8" rx="4" fill="#FC7600" fill-opacity="0.1"/>
<rect x="196.541" y="152.865" width="8" height="8" rx="4" fill="#FC7600" fill-opacity="0.1"/>
<rect x="196.541" y="174.703" width="8" height="8" rx="4" fill="#FC7600" fill-opacity="0.1"/>
<rect x="196.541" y="196.541" width="8" height="8" rx="4" fill="#FC7600" fill-opacity="0.1"/>
</svg>
