<svg width="85" height="85" viewBox="0 0 85 85" fill="none" xmlns="http://www.w3.org/2000/svg">
<circle opacity="0.05" cx="42.5" cy="42.5" r="42.5" fill="#616D39"/>
<g clip-path="url(#clip0_1551_38822)">
<path fill-rule="evenodd" clip-rule="evenodd" d="M58.1717 23.6418C58.5883 23.4235 59.0917 23.4601 59.475 23.7318C59.8583 24.0051 60.055 24.4685 59.9867 24.9351L55.4033 55.7685C55.3483 56.1335 55.1333 56.4585 54.8167 56.6518C54.6183 56.7718 54.3933 56.8335 54.1667 56.8335C54.03 56.8335 53.8933 56.8101 53.7633 56.7668L36.2917 50.7951L53.4717 30.0968L31.27 49.0801L20.845 45.5168C20.3733 45.3551 20.0417 44.9285 20.0033 44.4285C19.9667 43.9301 20.2283 43.4568 20.6717 43.2251L58.1717 23.6418ZM34.5834 60.5835V52.8535L41.3617 55.1701L36.84 61.3235C36.6 61.6501 36.2234 61.8335 35.8334 61.8335C35.7034 61.8335 35.5717 61.8134 35.4434 61.7718C34.93 61.6018 34.5834 61.1235 34.5834 60.5835Z" fill="#616D39"/>
</g>
<defs>
<clipPath id="clip0_1551_38822">
<rect width="40" height="40" fill="white" transform="translate(20 23)"/>
</clipPath>
</defs>
</svg>
