<svg width="100" height="100" viewBox="0 0 100 100" fill="none" xmlns="http://www.w3.org/2000/svg">
<circle opacity="0.04" cx="50" cy="50" r="50" fill="#17253F"/>
<circle opacity="0.05" cx="50" cy="50" r="36" fill="#17253F"/>
<path d="M69.1663 34H30.8332C30.3728 34 29.9998 34.3733 29.9998 34.8334V64.8336C29.9998 65.0546 30.0876 65.2667 30.2439 65.4229C30.4002 65.5792 30.6122 65.6671 30.8332 65.6671H69.1663C69.3873 65.6671 69.5994 65.5792 69.7556 65.4229C69.9119 65.2667 69.9998 65.0546 69.9998 64.8336V34.8334C69.9998 34.6124 69.9119 34.4004 69.7556 34.2441C69.5994 34.0879 69.3873 34 69.1663 34ZM68.3332 35.6669V42.3335H31.6658V35.6669H68.3332ZM31.6658 63.9999V43.9998H68.3332V63.9999H31.6658ZM34.1658 38.9998C34.1658 38.5396 34.5391 38.1666 34.9992 38.1666H38.3327C38.7928 38.1666 39.1658 38.5397 39.1658 38.9998C39.1658 39.4601 38.7928 39.8332 38.3327 39.8332H34.9992C34.5391 39.8332 34.1658 39.4601 34.1658 38.9998ZM40.8324 38.9998H40.8327C40.8327 38.5396 41.2057 38.1666 41.6658 38.1666H44.9993C45.4594 38.1666 45.8327 38.5397 45.8327 38.9998C45.8327 39.4601 45.4594 39.8332 44.9993 39.8332H41.6658C41.2057 39.8332 40.8327 39.4601 40.8327 38.9998H40.8324ZM47.499 38.9998H47.4993C47.4993 38.5396 47.8724 38.1666 48.3327 38.1666H51.6662H51.6659C52.1263 38.1666 52.4993 38.5397 52.4993 38.9998C52.4993 39.4601 52.1263 39.8332 51.6659 39.8332H48.3327C47.8724 39.8332 47.4993 39.4601 47.4993 38.9998H47.499ZM44.8244 52.9249L44.1662 52.2583L43.508 52.9249H43.5077C43.3511 53.0825 43.1383 53.1712 42.9159 53.1712C42.6938 53.1712 42.4809 53.0825 42.3244 52.9249C42.1664 52.7683 42.0777 52.5551 42.0777 52.333C42.0777 52.1109 42.1664 51.8978 42.3244 51.7412L42.9909 51.083L42.3244 50.4248C41.9976 50.0978 41.9976 49.5683 42.3244 49.2413C42.6511 48.9145 43.1809 48.9145 43.5076 49.2413L44.1659 49.9078L44.8241 49.2413H44.8243C45.1511 48.9145 45.6809 48.9145 46.0076 49.2413C46.3344 49.5683 46.3344 50.0978 46.0076 50.4248L45.3411 51.083L46.0076 51.7412C46.1653 51.8978 46.254 52.1109 46.254 52.333C46.254 52.5551 46.1653 52.7683 46.0076 52.9249C45.8511 53.0825 45.6382 53.1712 45.4158 53.1712C45.1937 53.1712 44.9808 53.0825 44.8243 52.9249H44.8244ZM57.6745 51.7416V51.7413C57.8324 51.8978 57.9211 52.111 57.9211 52.3331C57.9211 52.5552 57.8324 52.7684 57.6745 52.9249C57.5179 53.0825 57.305 53.1713 57.0829 53.1713C56.8606 53.1713 56.6477 53.0825 56.4911 52.9249L55.8329 52.2583L55.1747 52.9249H55.1744C55.0179 53.0825 54.805 53.1713 54.5829 53.1713C54.3605 53.1713 54.1477 53.0825 53.9911 52.9249C53.8335 52.7684 53.7447 52.5552 53.7447 52.3331C53.7447 52.111 53.8335 51.8978 53.9911 51.7413L54.6577 51.0831L53.9911 50.4249C53.6644 50.0979 53.6644 49.5683 53.9911 49.2413C54.3179 48.9146 54.8477 48.9146 55.1744 49.2413L55.8326 49.9079L56.4908 49.2413H56.4911C56.8178 48.9146 57.3477 48.9146 57.6744 49.2413C58.0011 49.5683 58.0011 50.0979 57.6744 50.4249L57.0078 51.0831L57.6745 51.7416ZM55.7662 59.2916C55.6462 59.6125 55.3421 59.8273 54.9995 59.8332C54.9002 59.8321 54.8017 59.8153 54.7079 59.7832C53.1979 59.2428 51.603 58.9774 49.9995 58.9997C48.4015 58.9794 46.8125 59.2447 45.3077 59.7832C44.8752 59.9442 44.3939 59.7241 44.2326 59.2916C44.0716 58.8588 44.2918 58.3775 44.7243 58.2165C46.4176 57.6158 48.2028 57.3167 49.9995 57.3332C51.796 57.3167 53.5813 57.6158 55.2746 58.2165C55.4828 58.2933 55.6516 58.4501 55.7439 58.6518C55.8363 58.8535 55.8444 59.0837 55.7663 59.2916L55.7662 59.2916Z" fill="#17253F"/>
</svg>
