<svg width="16" height="17" viewBox="0 0 16 17" fill="none" xmlns="http://www.w3.org/2000/svg">
<path d="M8.03478 2.42321C8.24478 1.90321 8.82978 1.34321 9.58078 1.55221C10.1708 1.71621 10.5538 2.07221 10.7738 2.54821C10.9778 2.99121 11.0278 3.51321 11.0378 4.01021C11.0478 4.54521 10.9358 5.18621 10.8048 5.74821C10.7463 5.99655 10.6813 6.2433 10.6098 6.48821H11.9948C12.3055 6.48823 12.612 6.56066 12.8899 6.69975C13.1677 6.83884 13.4094 7.04076 13.5956 7.28951C13.7819 7.53826 13.9076 7.82698 13.9628 8.13278C14.018 8.43857 14.0013 8.75303 13.9138 9.05121L12.5498 13.6972C12.4562 14.016 12.3 14.313 12.0903 14.5708C11.8806 14.8285 11.6217 15.0419 11.3286 15.1984C11.0355 15.3549 10.7141 15.4514 10.3833 15.4823C10.0524 15.5132 9.71878 15.4778 9.40178 15.3782L4.04578 13.6962C3.75603 13.6052 3.4908 13.4494 3.27024 13.2406C3.04967 13.0318 2.87955 12.7755 2.77278 12.4912L2.25278 11.1072C2.08729 10.6667 2.0824 10.182 2.23896 9.73832C2.39552 9.2946 2.70352 8.92029 3.10878 8.68121L4.98078 7.57721C5.16942 7.42802 5.34444 7.26237 5.50378 7.08221C5.84778 6.69321 6.32078 6.04621 6.79578 5.03721C7.00078 4.60121 7.17278 4.25821 7.32878 3.94721C7.58178 3.44421 7.79378 3.02321 8.03478 2.42321ZM5.51878 8.42021C5.51318 8.42365 5.50751 8.42699 5.50178 8.43021L3.61678 9.54221C3.41415 9.66175 3.26015 9.84891 3.18187 10.0708C3.10359 10.2926 3.10604 10.535 3.18878 10.7552L3.70878 12.1392C3.76215 12.2815 3.84726 12.4098 3.95764 12.5143C4.06802 12.6188 4.20076 12.6967 4.34578 12.7422L9.69978 14.4242C9.89002 14.4842 10.0903 14.5055 10.2889 14.4872C10.4875 14.4688 10.6805 14.4109 10.8564 14.3171C11.0324 14.2232 11.1879 14.0952 11.3139 13.9405C11.4398 13.7858 11.5336 13.6076 11.5898 13.4162L12.9528 8.77021C12.9966 8.62105 13.0051 8.46372 12.9775 8.31072C12.9499 8.15772 12.887 8.01326 12.7938 7.88881C12.7006 7.76436 12.5797 7.66336 12.4407 7.59382C12.3016 7.52428 12.1483 7.48812 11.9928 7.48821H9.92678C9.84678 7.48817 9.76797 7.46893 9.69695 7.43211C9.62593 7.39529 9.56478 7.34197 9.51863 7.27663C9.47249 7.21128 9.4427 7.13582 9.43176 7.05657C9.42082 6.97733 9.42906 6.89661 9.45578 6.82121C9.55578 6.53921 9.70778 6.05021 9.83178 5.51921C9.95778 4.98121 10.0468 4.43721 10.0388 4.02921C10.0288 3.56121 9.97978 3.21321 9.86578 2.96721C9.76778 2.75221 9.61478 2.59921 9.31378 2.51521C9.27078 2.50321 9.21978 2.50721 9.15378 2.55021C9.06762 2.61173 9.00153 2.6973 8.96378 2.79621C8.73343 3.35764 8.47818 3.90851 8.19878 4.44721C8.04378 4.75621 7.88078 5.08121 7.70178 5.46221C7.18778 6.55621 6.66178 7.28421 6.25178 7.74521C6.04778 7.97521 5.87378 8.13821 5.74578 8.24721C5.68077 8.30247 5.61337 8.35485 5.54378 8.40421L5.52778 8.41421L5.52278 8.41821L5.51978 8.42021H5.51878ZM4.97578 7.58021L4.97478 7.58121L4.97578 7.58021Z" fill="#333333"/>
</svg>
