<svg viewBox="0 0 16 17" fill="none" xmlns="http://www.w3.org/2000/svg">
<path d="M3.416 8.576L3.418 8.584C3.54539 9.18823 3.81305 9.75405 4.19938 10.2358C4.5857 10.7175 5.07987 11.1017 5.642 11.3573L8 12.4293V11.1667H9.33333C10.2174 11.1667 11.0652 10.8155 11.6904 10.1904C12.3155 9.56523 12.6667 8.71739 12.6667 7.83333V7.16667C12.6667 6.28261 12.3155 5.43477 11.6904 4.80964C11.0652 4.18452 10.2174 3.83333 9.33333 3.83333H6.66667C5.78261 3.83333 4.93477 4.18452 4.30964 4.80964C3.68452 5.43477 3.33333 6.28261 3.33333 7.16667V7.83333C3.33333 8.08667 3.36133 8.332 3.414 8.56667L3.416 8.576ZM9.33333 14.5L5.09067 12.5713C4.33824 12.2294 3.67675 11.7153 3.15957 11.0706C2.64239 10.4259 2.284 9.66868 2.11333 8.86C2.03781 8.523 1.9998 8.17869 2 7.83333V7.16667C2 5.92899 2.49167 4.742 3.36684 3.86683C4.24201 2.99167 5.42899 2.5 6.66667 2.5H9.33333C10.571 2.5 11.758 2.99167 12.6332 3.86683C13.5083 4.742 14 5.92899 14 7.16667V7.83333C14 9.07101 13.5083 10.258 12.6332 11.1332C11.758 12.0083 10.571 12.5 9.33333 12.5V14.5Z" fill="#333333"/>
</svg>
