<svg width="112" height="112" viewBox="0 0 112 112" fill="none" xmlns="http://www.w3.org/2000/svg">
<path d="M56 7C28.9406 7 7 28.9406 7 56C7 83.0594 28.9406 105 56 105C83.0594 105 105 83.0594 105 56C105 28.9406 83.0594 7 56 7ZM71.7609 56.7547L47.8734 74.1344C47.7425 74.2285 47.5881 74.2847 47.4273 74.2967C47.2665 74.3088 47.1055 74.2764 46.9619 74.2029C46.8184 74.1294 46.6978 74.0178 46.6136 73.8803C46.5293 73.7428 46.4846 73.5847 46.4844 73.4234V38.6859C46.4838 38.5244 46.5281 38.3658 46.6121 38.2278C46.6962 38.0898 46.8169 37.9778 46.9607 37.9042C47.1046 37.8305 47.266 37.7982 47.4271 37.8107C47.5882 37.8232 47.7427 37.8801 47.8734 37.975L71.7609 55.3438C71.8738 55.4236 71.9659 55.5293 72.0294 55.652C72.0929 55.7748 72.1261 55.911 72.1261 56.0492C72.1261 56.1874 72.0929 56.3236 72.0294 56.4464C71.9659 56.5692 71.8738 56.6749 71.7609 56.7547Z" fill="white"/>
</svg>
