<svg viewBox="0 0 16 17" fill="none" xmlns="http://www.w3.org/2000/svg">
<path d="M11.75 10.875C11.3047 10.875 10.8937 11.0312 10.5719 11.2922L7.33437 8.95C7.38859 8.65245 7.38859 8.34755 7.33437 8.05L10.5719 5.70781C10.8937 5.96875 11.3047 6.125 11.75 6.125C12.7844 6.125 13.625 5.28437 13.625 4.25C13.625 3.21563 12.7844 2.375 11.75 2.375C10.7156 2.375 9.875 3.21563 9.875 4.25C9.875 4.43125 9.9 4.60469 9.94844 4.77031L6.87344 6.99687C6.41719 6.39219 5.69219 6 4.875 6C3.49375 6 2.375 7.11875 2.375 8.5C2.375 9.88125 3.49375 11 4.875 11C5.69219 11 6.41719 10.6078 6.87344 10.0031L9.94844 12.2297C9.9 12.3953 9.875 12.5703 9.875 12.75C9.875 13.7844 10.7156 14.625 11.75 14.625C12.7844 14.625 13.625 13.7844 13.625 12.75C13.625 11.7156 12.7844 10.875 11.75 10.875ZM11.75 3.4375C12.1984 3.4375 12.5625 3.80156 12.5625 4.25C12.5625 4.69844 12.1984 5.0625 11.75 5.0625C11.3016 5.0625 10.9375 4.69844 10.9375 4.25C10.9375 3.80156 11.3016 3.4375 11.75 3.4375ZM4.875 9.875C4.11719 9.875 3.5 9.25781 3.5 8.5C3.5 7.74219 4.11719 7.125 4.875 7.125C5.63281 7.125 6.25 7.74219 6.25 8.5C6.25 9.25781 5.63281 9.875 4.875 9.875ZM11.75 13.5625C11.3016 13.5625 10.9375 13.1984 10.9375 12.75C10.9375 12.3016 11.3016 11.9375 11.75 11.9375C12.1984 11.9375 12.5625 12.3016 12.5625 12.75C12.5625 13.1984 12.1984 13.5625 11.75 13.5625Z" fill="#333333"/>
</svg>
