<svg width="25" height="24" viewBox="0 0 25 24" fill="none" xmlns="http://www.w3.org/2000/svg">
<path d="M5.57142 8C6.30911 6.72229 7.38577 5.67345 8.68235 4.96946C9.97894 4.26547 11.445 3.93375 12.9183 4.01097C14.3917 4.08818 15.815 4.57133 17.0309 5.40699C18.2468 6.24266 19.2079 7.39828 19.808 8.74611M3.73145 5.51537L4.46086 8.6749C4.58509 9.21303 5.12204 9.54856 5.66017 9.42433L8.81971 8.69492M19.4279 15.9999C18.6902 17.2776 17.6135 18.3264 16.3169 19.0304C15.0203 19.7344 13.5543 20.0661 12.081 19.9889C10.6076 19.9117 9.18431 19.4286 7.96841 18.5929C6.75252 17.7572 5.79139 16.6016 5.1913 15.2538M21.2678 18.4845L20.5384 15.325C20.4142 14.7869 19.8772 14.4513 19.3391 14.5756L16.1796 15.305" stroke="#365F8C" stroke-width="1.5" stroke-linecap="round"/>
</svg>
