<svg width="1440" height="781" viewBox="0 0 1440 781" fill="none" xmlns="http://www.w3.org/2000/svg">
<path d="M0 354.188L294.235 182.551C334.874 158.845 385.126 158.845 425.765 182.551L720 354.188L1014.24 525.825C1054.87 549.531 1105.13 549.531 1145.76 525.825L1440 354.188" stroke="#FEDC9D" stroke-opacity="0.4" stroke-width="2.46923" stroke-linecap="round" stroke-linejoin="round"/>
<path d="M0 282.188L294.235 110.55C334.874 86.8445 385.126 86.8446 425.765 110.55L720 282.188L1014.24 453.825C1054.87 477.531 1105.13 477.531 1145.76 453.825L1440 282.188" stroke="#FEDC9D" stroke-opacity="0.4" stroke-width="2.46923" stroke-linecap="round" stroke-linejoin="round"/>
<path d="M0 210.187L294.235 38.5502C334.874 14.8443 385.126 14.8443 425.765 38.5502L720 210.187L1014.24 381.825C1054.87 405.531 1105.13 405.531 1145.76 381.825L1440 210.187" stroke="#FEDC9D" stroke-opacity="0.4" stroke-width="2.46923" stroke-linecap="round" stroke-linejoin="round"/>
<path d="M0 426.187L294.235 254.55C334.874 230.844 385.126 230.844 425.765 254.55L720 426.187L1014.24 597.825C1054.87 621.53 1105.13 621.53 1145.76 597.825L1440 426.187" stroke="#FEDC9D" stroke-opacity="0.4" stroke-width="2.46923" stroke-linecap="round" stroke-linejoin="round"/>
<path d="M0 498.187L294.235 326.55C334.874 302.844 385.126 302.844 425.765 326.55L720 498.187L1014.24 669.825C1054.87 693.531 1105.13 693.531 1145.76 669.825L1440 498.187" stroke="#FEDC9D" stroke-opacity="0.4" stroke-width="2.46923" stroke-linecap="round" stroke-linejoin="round"/>
<path d="M0 570.188L294.235 398.55C334.874 374.845 385.126 374.845 425.765 398.55L720 570.188L1014.24 741.825C1054.87 765.531 1105.13 765.531 1145.76 741.825L1440 570.188" stroke="#FEDC9D" stroke-opacity="0.4" stroke-width="2.46923" stroke-linecap="round" stroke-linejoin="round"/>
</svg>
