<svg width="22" height="22" viewBox="0 0 22 22" fill="none" xmlns="http://www.w3.org/2000/svg">
<path d="M20.4287 11C20.4287 16.2072 16.2074 20.4286 11.0001 20.4286C9.26414 20.4286 7.63776 19.9594 6.24082 19.141C5.85751 18.9164 5.4045 18.8275 4.97351 18.9352L4.9235 18.9477C3.80324 19.2278 2.79375 18.2024 3.09128 17.0866C3.20661 16.6541 3.11876 16.1964 2.89001 15.8116C2.0525 14.403 1.57153 12.7577 1.57153 11C1.57153 5.79273 5.79285 1.57141 11.0001 1.57141C16.2074 1.57141 20.4287 5.79273 20.4287 11Z" fill="current" fill-opacity="0.1"/>
<path fill-rule="evenodd" clip-rule="evenodd" d="M11 22C17.0751 22 22 17.0751 22 11C22 4.92487 17.0751 0 11 0C4.92487 0 0 4.92487 0 11C0 12.9728 0.519355 14.8244 1.4288 16.4253L0 22L5.74739 20.6673C7.30822 21.5171 9.09772 22 11 22ZM11 20.3077C16.1405 20.3077 20.3077 16.1405 20.3077 11C20.3077 5.8595 16.1405 1.69231 11 1.69231C5.8595 1.69231 1.69231 5.8595 1.69231 11C1.69231 12.9848 2.31354 14.8244 3.37216 16.3352L2.53846 19.4615L5.71994 18.6662C7.22021 19.7014 9.03931 20.3077 11 20.3077Z" fill="current"/>
<path d="M8.25002 5.89282C7.98848 5.36751 7.58727 5.41402 7.18196 5.41402C6.4576 5.41402 5.32812 6.28167 5.32812 7.89645C5.32813 9.21984 5.91128 10.6685 7.87633 12.8356C9.77275 14.927 12.2645 16.0088 14.3332 15.972C16.4018 15.9352 16.8274 14.155 16.8274 13.5539C16.8274 13.2874 16.662 13.1545 16.5481 13.1184C15.8432 12.78 14.543 12.1497 14.2472 12.0312C13.9514 11.9128 13.7969 12.073 13.7009 12.1601C13.4326 12.4158 12.9008 13.1692 12.7188 13.3387C12.5367 13.5082 12.2652 13.4224 12.1523 13.3583C11.7366 13.1915 10.6094 12.6902 9.71101 11.8193C8.5999 10.7422 8.53469 10.3716 8.32535 10.0417C8.15788 9.77783 8.28077 9.61592 8.34209 9.54517C8.58149 9.26894 8.91205 8.84247 9.06029 8.63054C9.20853 8.41862 9.09084 8.09685 9.02023 7.89645C8.71654 7.03456 8.45925 6.31307 8.25002 5.89282Z" fill="current"/>
</svg>
